<mxfile host="65bd71144e">
    <diagram id="-j3PM6E3SZjeZZPbygQz" name="Page-1">
        <mxGraphModel dx="943" dy="778" grid="1" gridSize="10" guides="1" tooltips="1" connect="1" arrows="1" fold="1" page="1" pageScale="1" pageWidth="1100" pageHeight="850" math="0" shadow="0">
            <root>
                <mxCell id="0"/>
                <mxCell id="1" parent="0"/>
                <mxCell id="27" value="Write Batches in &lt;br&gt;Parallel" style="edgeStyle=none;html=1;" parent="1" source="25" target="20" edge="1">
                    <mxGeometry relative="1" as="geometry"/>
                </mxCell>
                <mxCell id="25" value="" style="rounded=0;whiteSpace=wrap;html=1;fillColor=none;" parent="1" vertex="1">
                    <mxGeometry x="680" y="185" width="190" height="310" as="geometry"/>
                </mxCell>
                <mxCell id="21" value="Get Graph" style="edgeStyle=none;html=1;" parent="1" source="2" target="3" edge="1">
                    <mxGeometry relative="1" as="geometry"/>
                </mxCell>
                <mxCell id="2" value="Source Service" style="rounded=0;whiteSpace=wrap;html=1;fillColor=#647687;fontColor=#ffffff;strokeColor=#314354;" parent="1" vertex="1">
                    <mxGeometry x="10" y="379" width="120" height="60" as="geometry"/>
                </mxCell>
                <mxCell id="3" value="Destination Service" style="rounded=0;whiteSpace=wrap;html=1;fillColor=#76608a;fontColor=#ffffff;strokeColor=#432D57;" parent="1" vertex="1">
                    <mxGeometry x="220" y="379" width="120" height="60" as="geometry"/>
                </mxCell>
                <mxCell id="26" value="Batch Queries&lt;br&gt;" style="edgeStyle=none;html=1;entryX=0;entryY=0.5;entryDx=0;entryDy=0;" parent="1" source="4" target="25" edge="1">
                    <mxGeometry x="-0.1315" y="23" relative="1" as="geometry">
                        <mxPoint as="offset"/>
                    </mxGeometry>
                </mxCell>
                <mxCell id="4" value="Domain Vertex Model" style="rounded=0;whiteSpace=wrap;html=1;fillColor=#6d8764;fontColor=#ffffff;strokeColor=#3A5431;" parent="1" vertex="1">
                    <mxGeometry x="470" y="309" width="120" height="60" as="geometry"/>
                </mxCell>
                <mxCell id="5" value="Domain Vertex Model" style="rounded=0;whiteSpace=wrap;html=1;fillColor=#384533;fontColor=#ffffff;strokeColor=#3A5431;" parent="1" vertex="1">
                    <mxGeometry x="470" y="379" width="120" height="60" as="geometry"/>
                </mxCell>
                <mxCell id="6" value="Domain Vertex Model" style="rounded=0;whiteSpace=wrap;html=1;fillColor=#A9D19B;fontColor=#ffffff;strokeColor=#3A5431;" parent="1" vertex="1">
                    <mxGeometry x="470" y="449" width="120" height="60" as="geometry"/>
                </mxCell>
                <mxCell id="8" value="Destination Domain Vertex" style="rounded=0;whiteSpace=wrap;html=1;fillColor=#6d8764;fontColor=#ffffff;strokeColor=#3A5431;" parent="1" vertex="1">
                    <mxGeometry x="705" y="219" width="120" height="60" as="geometry"/>
                </mxCell>
                <mxCell id="9" value="Destination Domain Vertex" style="rounded=0;whiteSpace=wrap;html=1;fillColor=#6d8764;fontColor=#ffffff;strokeColor=#3A5431;" parent="1" vertex="1">
                    <mxGeometry x="715" y="229" width="120" height="60" as="geometry"/>
                </mxCell>
                <mxCell id="10" value="Gremlin Insert Query" style="rounded=0;whiteSpace=wrap;html=1;fillColor=#6d8764;fontColor=#ffffff;strokeColor=#3A5431;" parent="1" vertex="1">
                    <mxGeometry x="725" y="239" width="120" height="60" as="geometry"/>
                </mxCell>
                <mxCell id="11" value="Destination Domain Vertex" style="rounded=0;whiteSpace=wrap;html=1;fillColor=#6d8764;fontColor=#ffffff;strokeColor=#3A5431;" parent="1" vertex="1">
                    <mxGeometry x="705" y="309" width="120" height="60" as="geometry"/>
                </mxCell>
                <mxCell id="12" value="Destination Domain Vertex" style="rounded=0;whiteSpace=wrap;html=1;fillColor=#6d8764;fontColor=#ffffff;strokeColor=#3A5431;" parent="1" vertex="1">
                    <mxGeometry x="715" y="319" width="120" height="60" as="geometry"/>
                </mxCell>
                <mxCell id="13" value="Gremlin Insert Query" style="rounded=0;whiteSpace=wrap;html=1;fillColor=#6d8764;fontColor=#ffffff;strokeColor=#3A5431;" parent="1" vertex="1">
                    <mxGeometry x="725" y="329" width="120" height="60" as="geometry"/>
                </mxCell>
                <mxCell id="17" value="Destination Domain Vertex" style="rounded=0;whiteSpace=wrap;html=1;fillColor=#6d8764;fontColor=#ffffff;strokeColor=#3A5431;" parent="1" vertex="1">
                    <mxGeometry x="705" y="399" width="120" height="60" as="geometry"/>
                </mxCell>
                <mxCell id="18" value="Destination Domain Vertex" style="rounded=0;whiteSpace=wrap;html=1;fillColor=#6d8764;fontColor=#ffffff;strokeColor=#3A5431;" parent="1" vertex="1">
                    <mxGeometry x="715" y="409" width="120" height="60" as="geometry"/>
                </mxCell>
                <mxCell id="19" value="Gremlin Insert Query" style="rounded=0;whiteSpace=wrap;html=1;fillColor=#6d8764;fontColor=#ffffff;strokeColor=#3A5431;" parent="1" vertex="1">
                    <mxGeometry x="725" y="419" width="120" height="60" as="geometry"/>
                </mxCell>
                <mxCell id="20" value="Cosmos Graph Db" style="shape=cylinder3;whiteSpace=wrap;html=1;boundedLbl=1;backgroundOutline=1;size=15;fillColor=#a20025;fontColor=#ffffff;strokeColor=#6F0000;" parent="1" vertex="1">
                    <mxGeometry x="1000" y="302" width="60" height="80" as="geometry"/>
                </mxCell>
                <mxCell id="22" value="Build Domain Vertex" style="edgeStyle=none;html=1;exitX=1;exitY=0.5;exitDx=0;exitDy=0;entryX=0;entryY=0.5;entryDx=0;entryDy=0;" parent="1" source="3" target="4" edge="1">
                    <mxGeometry relative="1" as="geometry">
                        <mxPoint x="190" y="419" as="sourcePoint"/>
                        <mxPoint x="230" y="419" as="targetPoint"/>
                        <Array as="points"/>
                    </mxGeometry>
                </mxCell>
                <mxCell id="23" value="Build Domain Vertex" style="edgeStyle=none;html=1;exitX=1;exitY=0.5;exitDx=0;exitDy=0;entryX=0;entryY=0.5;entryDx=0;entryDy=0;" parent="1" source="3" target="5" edge="1">
                    <mxGeometry relative="1" as="geometry">
                        <mxPoint x="350" y="419" as="sourcePoint"/>
                        <mxPoint x="450" y="349" as="targetPoint"/>
                        <Array as="points"/>
                    </mxGeometry>
                </mxCell>
                <mxCell id="24" value="Build Domain Vertex" style="edgeStyle=none;html=1;exitX=1;exitY=0.5;exitDx=0;exitDy=0;entryX=0;entryY=0.5;entryDx=0;entryDy=0;" parent="1" source="3" target="6" edge="1">
                    <mxGeometry relative="1" as="geometry">
                        <mxPoint x="350" y="419" as="sourcePoint"/>
                        <mxPoint x="450" y="419" as="targetPoint"/>
                        <Array as="points"/>
                    </mxGeometry>
                </mxCell>
            </root>
        </mxGraphModel>
    </diagram>
</mxfile>